<svg width="170" height="170" viewBox="0 0 170 170" fill="none" xmlns="http://www.w3.org/2000/svg">
<mask id="path-1-inside-1_12_306" fill="white">
<path d="M164.531 55.0039C171.192 72.6634 171.785 92.0374 166.218 110.071C160.651 128.106 149.241 143.774 133.785 154.606C118.329 165.439 99.7077 170.819 80.8564 169.899C62.005 168.979 43.996 161.811 29.6687 149.525C15.3413 137.239 5.5105 120.534 1.72616 102.043C-2.05817 83.5526 0.419216 64.3285 8.76775 47.4015C17.1163 30.4746 30.8611 16.8076 47.8352 8.5554C64.8093 0.303155 84.0472 -2.06499 102.516 1.82432L101.45 6.88679C84.1052 3.23421 66.0382 5.45821 50.0972 13.2082C34.1562 20.9582 21.248 33.7933 13.4076 49.69C5.56721 65.5867 3.24061 83.6407 6.79461 101.006C10.3486 118.371 19.5811 134.059 33.0364 145.597C46.4917 157.136 63.4046 163.868 81.1086 164.732C98.8125 165.596 116.301 160.543 130.816 150.37C145.331 140.197 156.047 125.482 161.275 108.545C166.503 91.609 165.946 73.4142 159.691 56.8296L164.531 55.0039Z"/>
</mask>
<path d="M164.531 55.0039C171.192 72.6634 171.785 92.0374 166.218 110.071C160.651 128.106 149.241 143.774 133.785 154.606C118.329 165.439 99.7077 170.819 80.8564 169.899C62.005 168.979 43.996 161.811 29.6687 149.525C15.3413 137.239 5.5105 120.534 1.72616 102.043C-2.05817 83.5526 0.419216 64.3285 8.76775 47.4015C17.1163 30.4746 30.8611 16.8076 47.8352 8.5554C64.8093 0.303155 84.0472 -2.06499 102.516 1.82432L101.45 6.88679C84.1052 3.23421 66.0382 5.45821 50.0972 13.2082C34.1562 20.9582 21.248 33.7933 13.4076 49.69C5.56721 65.5867 3.24061 83.6407 6.79461 101.006C10.3486 118.371 19.5811 134.059 33.0364 145.597C46.4917 157.136 63.4046 163.868 81.1086 164.732C98.8125 165.596 116.301 160.543 130.816 150.37C145.331 140.197 156.047 125.482 161.275 108.545C166.503 91.609 165.946 73.4142 159.691 56.8296L164.531 55.0039Z" stroke="#1785D4" stroke-width="20" mask="url(#path-1-inside-1_12_306)"/>
</svg>
