<svg width="32" height="32" viewBox="0 0 32 32" fill="none" xmlns="http://www.w3.org/2000/svg">
<path d="M7.46667 24.5184H8.53333V23.4517H7.46667V24.5184ZM7.46667 30.9141H6.4C6.4 31.1122 6.45516 31.3064 6.55931 31.4749C6.66345 31.6434 6.81246 31.7796 6.98964 31.8682C7.16682 31.9568 7.36517 31.9943 7.56246 31.9765C7.75975 31.9587 7.94819 31.8863 8.10667 31.7675L7.46667 30.9141ZM16 24.5184V23.4517H15.6437L15.36 23.6651L16 24.5184ZM9.6 8.52693H8.53333V10.6603H9.6V8.52693ZM22.4 10.6603H23.4667V8.52693H22.4V10.6603ZM9.6 14.9227H8.53333V17.056H9.6V14.9227ZM18.1333 17.056H19.2V14.9227H18.1333V17.056ZM6.4 24.5184V30.9141H8.53333V24.5184H6.4ZM8.10667 31.7675L16.64 25.3717L15.36 23.6651L6.82667 30.0608L8.10667 31.7675ZM16 25.5851H28.8V23.4517H16V25.5851ZM28.8 25.5851C30.5685 25.5851 32 24.1557 32 22.3851H29.8667C29.8667 22.976 29.3909 23.4517 28.8 23.4517V25.5851ZM32 22.3851V3.2H29.8667V22.3872H32V22.3851ZM32 3.2C32 1.42933 30.5685 0 28.8 0V2.13333C29.3909 2.13333 29.8667 2.60907 29.8667 3.2H32ZM28.8 0H3.2V2.13333H28.8V0ZM3.2 0C1.43147 0 0 1.42933 0 3.2H2.13333C2.13333 2.60907 2.60907 2.13333 3.2 2.13333V0ZM0 3.2V22.3851H2.13333V3.2H0ZM0 22.3851C0 24.1557 1.43147 25.5851 3.2 25.5851V23.4517C3.05984 23.452 2.92101 23.4246 2.79147 23.3711C2.66193 23.3176 2.54423 23.239 2.44513 23.1399C2.34602 23.0408 2.26746 22.9231 2.21396 22.7936C2.16045 22.6641 2.13305 22.5252 2.13333 22.3851H0ZM3.2 25.5851H7.46667V23.4517H3.2V25.5851ZM9.6 10.6603H22.4V8.52693H9.6V10.6603ZM9.6 17.056H18.1333V14.9227H9.6V17.056Z" fill="white"/>
</svg>
